<svg width="400" height="100" viewBox="0 0 400 100" fill="none" xmlns="http://www.w3.org/2000/svg">
<path fill-rule="evenodd" clip-rule="evenodd" d="M12.9266 16.3713C12.3983 16.9519 12.4333 17.8427 12.9883 18.3978L81.5829 86.9924C82.138 87.5474 83.0288 87.5824 83.6094 87.0541C93.6673 77.9019 99.9807 64.7063 99.9807 50.0362C99.9807 22.402 77.5788 0 49.9445 0C35.2744 0 22.0788 6.31337 12.9266 16.3713ZM4.35334 29.3894C4.09986 29.9483 4.22767 30.6036 4.66158 31.0375L68.9432 95.3191C69.3771 95.753 70.0324 95.8808 70.5913 95.6274C72.0763 94.9538 73.5225 94.2098 74.9257 93.3997C75.7598 92.9182 75.8875 91.7802 75.2065 91.0992L8.88146 24.7742C8.20049 24.0932 7.06252 24.221 6.58101 25.055C5.77088 26.4582 5.0269 27.9044 4.35334 29.3894ZM0.453579 47.796C0.1526 47.495 -0.00754113 47.0802 0.0207934 46.6555C0.153496 44.6664 0.402433 42.7092 0.760873 40.7905C0.975799 39.64 2.3816 39.2408 3.20918 40.0683L59.9124 96.7715C60.7399 97.5991 60.3407 99.0049 59.1902 99.2198C57.2715 99.5783 55.3143 99.8272 53.3252 99.9599C52.9005 99.9882 52.4857 99.8281 52.1847 99.5271L0.453579 47.796ZM3.93331 61.7589C2.90021 60.7258 1.23303 61.616 1.61138 63.0272C6.22104 80.2203 19.7604 93.7597 36.9535 98.3693C38.3647 98.7477 39.2549 97.0805 38.2218 96.0474L3.93331 61.7589ZM201.602 27.535C205.189 27.535 208.096 24.617 208.096 21.0175C208.096 17.418 205.189 14.5 201.602 14.5C198.016 14.5 195.109 17.418 195.109 21.0175C195.109 24.617 198.016 27.535 201.602 27.535ZM145.981 84.3746V14.5039H157.521V74.1519H188.636V84.3746H145.981ZM228.117 55.8636V84.3746H216.951V34.8555H227.977V43.3431L228.117 43.2494C229.238 40.5921 231.045 38.3725 233.537 36.5905C236.028 34.7773 239.205 33.8707 243.068 33.8707C246.494 33.8707 249.608 34.6367 252.412 36.1685C255.215 37.6691 257.457 39.873 259.139 42.7804C260.821 45.6878 261.662 49.2517 261.662 53.472V84.3746H250.496V55.0195C250.496 51.2681 249.499 48.4232 247.506 46.485C245.544 44.5155 242.912 43.5307 239.61 43.5307C237.492 43.5307 235.561 43.9684 233.817 44.8437C232.073 45.7191 230.687 47.0633 229.659 48.8765C228.631 50.6897 228.117 53.0187 228.117 55.8636ZM329.222 83.5305C331.776 84.6247 334.704 85.1718 338.005 85.1718C340.715 85.1718 343.035 84.8279 344.966 84.1401C346.898 83.4211 348.486 82.4676 349.732 81.2796C351.009 80.0917 352.021 78.7943 352.769 77.3875H352.956V84.3746H363.655V50.2833C363.655 47.8761 363.187 45.6722 362.253 43.6714C361.319 41.6706 359.964 39.9356 358.188 38.4663C356.444 36.9969 354.326 35.8715 351.834 35.09C349.343 34.2771 346.539 33.8707 343.425 33.8707C339.158 33.8707 335.467 34.6054 332.352 36.0747C329.268 37.5128 326.855 39.451 325.11 41.8895C323.366 44.3279 322.416 47.079 322.26 50.1426H333.053C333.177 48.7046 333.676 47.4228 334.548 46.2974C335.42 45.172 336.604 44.2966 338.099 43.6714C339.594 43.0149 341.322 42.6866 343.285 42.6866C345.247 42.6866 346.913 43.0149 348.284 43.6714C349.685 44.3279 350.76 45.2189 351.507 46.3443C352.255 47.4697 352.629 48.7827 352.629 50.2833V50.6585C352.629 51.7839 352.239 52.6123 351.461 53.1438C350.713 53.6752 349.436 54.066 347.63 54.3161C345.854 54.5662 343.425 54.8632 340.341 55.2071C337.818 55.4884 335.389 55.9105 333.053 56.4732C330.717 57.0359 328.63 57.8644 326.792 58.9585C324.986 60.0527 323.553 61.5064 322.494 63.3196C321.435 65.1328 320.906 67.4618 320.906 70.3066C320.906 73.5892 321.653 76.3402 323.148 78.5598C324.643 80.7482 326.668 82.4051 329.222 83.5305ZM347.303 75.2304C345.496 76.1995 343.269 76.6841 340.622 76.6841C337.943 76.6841 335.809 76.1214 334.221 74.996C332.632 73.8393 331.838 72.2605 331.838 70.2598C331.838 68.6967 332.274 67.4305 333.146 66.4614C334.05 65.4923 335.233 64.7264 336.697 64.1637C338.161 63.6009 339.749 63.2102 341.462 62.9913C342.708 62.8038 343.923 62.6162 345.107 62.4286C346.29 62.2098 347.396 62.0066 348.424 61.819C349.452 61.6002 350.324 61.3813 351.04 61.1625C351.788 60.9437 352.333 60.7092 352.675 60.4591V65.9925C352.675 67.9307 352.224 69.7127 351.32 71.3383C350.448 72.9327 349.109 74.23 347.303 75.2304ZM373.397 84.3746V34.8555H384.142V43.0149H384.283C385.186 40.2013 386.603 38.0599 388.534 36.5905C390.496 35.09 393.066 34.3397 396.243 34.3397C397.022 34.3397 397.723 34.3709 398.345 34.4335C399 34.4647 399.545 34.496 399.981 34.5272V44.6092C399.576 44.5467 398.859 44.4686 397.832 44.3748C396.804 44.281 395.714 44.2341 394.561 44.2341C392.723 44.2341 391.042 44.6561 389.515 45.5002C387.989 46.3443 386.774 47.6417 385.871 49.3923C384.999 51.1118 384.563 53.2845 384.563 55.9105V84.3746H373.397ZM195.996 84.3746V34.8555H207.162V84.3746H195.996ZM280.234 82.1706C283.816 84.3902 288.068 85.5 292.989 85.5C296.789 85.5 300.246 84.8122 303.361 83.4367C306.507 82.0299 309.123 80.1073 311.21 77.6689C313.297 75.1992 314.652 72.3543 315.275 69.1343H304.763C304.295 70.6036 303.532 71.901 302.473 73.0264C301.446 74.1206 300.153 74.9803 298.596 75.6056C297.038 76.2308 295.232 76.5434 293.176 76.5434C290.404 76.5434 288.021 75.9182 286.028 74.6677C284.066 73.4172 282.571 71.6822 281.543 69.4626C280.61 67.4196 280.1 65.1062 280.014 62.5224H315.929V59.5212C315.929 55.7073 315.368 52.2372 314.247 49.111C313.126 45.9535 311.537 43.2337 309.481 40.9516C307.426 38.6382 304.95 36.8563 302.053 35.6058C299.187 34.3553 295.995 33.7301 292.475 33.7301C287.897 33.7301 283.848 34.8399 280.328 37.0595C276.808 39.2791 274.052 42.3428 272.058 46.2505C270.065 50.1583 269.068 54.6287 269.068 59.6619C269.068 64.6638 270.034 69.1187 271.965 73.0264C273.896 76.9029 276.653 79.951 280.234 82.1706ZM303.735 49.3923C302.707 47.2665 301.243 45.6253 299.343 44.4686C297.443 43.3119 295.201 42.7335 292.615 42.7335C290.061 42.7335 287.834 43.3119 285.934 44.4686C284.066 45.6253 282.602 47.2665 281.543 49.3923C280.787 50.9319 280.309 52.6826 280.109 54.6444H305.168C304.968 52.6826 304.49 50.9319 303.735 49.3923Z" fill="black"/>
</svg>
